<svg xmlns="http://www.w3.org/2000/svg" viewBox="0 -0.5 16 16" shape-rendering="crispEdges">
<metadata>Made with Pixels to Svg https://codepen.io/shshaw/pen/XbxvNj</metadata>
<path stroke="#324f47" d="M8 1h3M6 2h2M4 3h2M2 4h2M0 5h2M0 6h1M0 7h1M0 8h1M0 9h1M1 10h1M2 11h1M3 12h1" />
<path stroke="#80a7ab" d="M8 2h2M6 3h4M5 4h2M2 5h1M6 5h1M8 5h3M12 5h1M1 6h1M3 6h1M7 6h2M10 6h1M12 6h2M4 7h1M8 7h1M5 8h1M9 8h1M1 9h1M2 10h1M3 11h1M4 12h1M5 13h1" />
<path stroke="#669489" d="M10 2h1M10 3h2M12 4h1M13 5h1M14 6h1M2 7h1M12 7h2M3 8h1M10 8h2M4 9h1M9 9h1M14 9h1M5 10h2M12 10h2M10 11h2M9 12h1M6 13h2" />
<path stroke="#284039" d="M11 2h1M12 3h1M13 4h1M14 5h1M15 6h1M15 7h1M15 8h1M15 9h1M14 10h2M12 11h2M10 12h2M4 13h1M8 13h2M5 14h3" />
<path stroke="#916640" d="M4 4h1M3 5h1M5 5h1M4 6h1M6 6h1M5 7h1M7 7h1M6 8h1M8 8h1M7 11h1" />
<path stroke="#cde7af" d="M7 4h5M7 5h1M11 5h1M9 6h1M11 6h1M9 7h3" />
<path stroke="#734432" d="M4 5h1M5 6h1M6 7h1M7 8h1M8 11h1M7 12h2" />
<path stroke="#5bc7a8" d="M2 6h1M3 7h1M4 8h1M5 9h2" />
<path stroke="#5d5d5d" d="M1 7h1M1 8h1" />
<path stroke="#b09b6c" d="M14 7h1M13 8h1M3 9h1M11 9h1M4 10h1M9 10h1M5 11h1" />
<path stroke="#998251" d="M2 8h1M12 8h1M10 9h1M6 11h1" />
<path stroke="#ccc888" d="M14 8h1M2 9h1M12 9h2M3 10h1M10 10h2M4 11h1M9 11h1M5 12h2" />
<path stroke="#dbc730" d="M7 9h2M7 10h2" />
</svg>