<svg xmlns="http://www.w3.org/2000/svg" version="1.1" xmlns:xlink="http://www.w3.org/1999/xlink" xmlns:svgjs="http://svgjs.dev/svgjs" width="1980" height="920" preserveAspectRatio="none" viewBox="0 0 1980 920"><g mask="url(&quot;#SvgjsMask1115&quot;)" fill="none"><rect width="1980" height="920" x="0" y="0" fill="rgba(20, 18, 18, 1)"></rect><path d="M1201 794L1200 404" stroke-width="8" stroke="url(&quot;#SvgjsLinearGradient1116&quot;)" stroke-linecap="round" class="Down"></path><path d="M1137 916L1136 1409" stroke-width="8" stroke="url(&quot;#SvgjsLinearGradient1117&quot;)" stroke-linecap="round" class="Up"></path><path d="M1276 752L1275 240" stroke-width="6" stroke="url(&quot;#SvgjsLinearGradient1118&quot;)" stroke-linecap="round" class="Up"></path><path d="M1533 681L1532 1166" stroke-width="10" stroke="url(&quot;#SvgjsLinearGradient1119&quot;)" stroke-linecap="round" class="Down"></path><path d="M1061 433L1060 709" stroke-width="6" stroke="url(&quot;#SvgjsLinearGradient1117&quot;)" stroke-linecap="round" class="Up"></path><path d="M1797 453L1796 3" stroke-width="8" stroke="url(&quot;#SvgjsLinearGradient1118&quot;)" stroke-linecap="round" class="Up"></path><path d="M459 611L458 117" stroke-width="8" stroke="url(&quot;#SvgjsLinearGradient1117&quot;)" stroke-linecap="round" class="Up"></path><path d="M1022 151L1021 -363" stroke-width="8" stroke="url(&quot;#SvgjsLinearGradient1120&quot;)" stroke-linecap="round" class="Down"></path><path d="M297 600L296 178" stroke-width="10" stroke="url(&quot;#SvgjsLinearGradient1116&quot;)" stroke-linecap="round" class="Down"></path><path d="M1456 278L1455 828" stroke-width="6" stroke="url(&quot;#SvgjsLinearGradient1121&quot;)" stroke-linecap="round" class="Up"></path><path d="M1637 715L1636 264" stroke-width="8" stroke="url(&quot;#SvgjsLinearGradient1116&quot;)" stroke-linecap="round" class="Down"></path><path d="M1596 168L1595 -279" stroke-width="6" stroke="url(&quot;#SvgjsLinearGradient1121&quot;)" stroke-linecap="round" class="Up"></path><path d="M1259 304L1258 -116" stroke-width="8" stroke="url(&quot;#SvgjsLinearGradient1121&quot;)" stroke-linecap="round" class="Up"></path><path d="M1505 57L1504 522" stroke-width="6" stroke="url(&quot;#SvgjsLinearGradient1121&quot;)" stroke-linecap="round" class="Up"></path><path d="M1841 529L1840 124" stroke-width="6" stroke="url(&quot;#SvgjsLinearGradient1121&quot;)" stroke-linecap="round" class="Up"></path><path d="M106 504L105 1062" stroke-width="8" stroke="url(&quot;#SvgjsLinearGradient1119&quot;)" stroke-linecap="round" class="Down"></path><path d="M371 104L370 -160" stroke-width="8" stroke="url(&quot;#SvgjsLinearGradient1117&quot;)" stroke-linecap="round" class="Up"></path><path d="M383 779L382 152" stroke-width="6" stroke="url(&quot;#SvgjsLinearGradient1119&quot;)" stroke-linecap="round" class="Down"></path><path d="M457 396L456 80" stroke-width="8" stroke="url(&quot;#SvgjsLinearGradient1119&quot;)" stroke-linecap="round" class="Down"></path><path d="M1692 882L1691 611" stroke-width="8" stroke="url(&quot;#SvgjsLinearGradient1121&quot;)" stroke-linecap="round" class="Up"></path><path d="M1083 542L1082 926" stroke-width="10" stroke="url(&quot;#SvgjsLinearGradient1117&quot;)" stroke-linecap="round" class="Up"></path><path d="M1713 421L1712 -250" stroke-width="6" stroke="url(&quot;#SvgjsLinearGradient1118&quot;)" stroke-linecap="round" class="Up"></path><path d="M1873 36L1872 -205" stroke-width="6" stroke="url(&quot;#SvgjsLinearGradient1119&quot;)" stroke-linecap="round" class="Down"></path><path d="M853 377L852 87" stroke-width="10" stroke="url(&quot;#SvgjsLinearGradient1120&quot;)" stroke-linecap="round" class="Down"></path><path d="M60 821L59 1363" stroke-width="10" stroke="url(&quot;#SvgjsLinearGradient1118&quot;)" stroke-linecap="round" class="Up"></path><path d="M435 742L434 1393" stroke-width="8" stroke="url(&quot;#SvgjsLinearGradient1120&quot;)" stroke-linecap="round" class="Down"></path><path d="M1857 792L1856 180" stroke-width="6" stroke="url(&quot;#SvgjsLinearGradient1116&quot;)" stroke-linecap="round" class="Down"></path><path d="M1420 91L1419 -201" stroke-width="6" stroke="url(&quot;#SvgjsLinearGradient1118&quot;)" stroke-linecap="round" class="Up"></path><path d="M879 280L878 17" stroke-width="10" stroke="url(&quot;#SvgjsLinearGradient1118&quot;)" stroke-linecap="round" class="Up"></path><path d="M1782 467L1781 804" stroke-width="10" stroke="url(&quot;#SvgjsLinearGradient1116&quot;)" stroke-linecap="round" class="Down"></path><path d="M289 294L288 -214" stroke-width="10" stroke="url(&quot;#SvgjsLinearGradient1117&quot;)" stroke-linecap="round" class="Up"></path><path d="M811 685L810 1054" stroke-width="6" stroke="url(&quot;#SvgjsLinearGradient1118&quot;)" stroke-linecap="round" class="Up"></path><path d="M267 627L266 913" stroke-width="6" stroke="url(&quot;#SvgjsLinearGradient1116&quot;)" stroke-linecap="round" class="Down"></path><path d="M1485 823L1484 343" stroke-width="10" stroke="url(&quot;#SvgjsLinearGradient1119&quot;)" stroke-linecap="round" class="Down"></path><path d="M1819 483L1818 -127" stroke-width="10" stroke="url(&quot;#SvgjsLinearGradient1119&quot;)" stroke-linecap="round" class="Down"></path><path d="M329 521L328 1098" stroke-width="6" stroke="url(&quot;#SvgjsLinearGradient1120&quot;)" stroke-linecap="round" class="Down"></path><path d="M70 211L69 -274" stroke-width="8" stroke="url(&quot;#SvgjsLinearGradient1116&quot;)" stroke-linecap="round" class="Down"></path><path d="M312 889L311 1301" stroke-width="8" stroke="url(&quot;#SvgjsLinearGradient1116&quot;)" stroke-linecap="round" class="Down"></path><path d="M145 384L144 931" stroke-width="8" stroke="url(&quot;#SvgjsLinearGradient1120&quot;)" stroke-linecap="round" class="Down"></path><path d="M27 811L26 367" stroke-width="8" stroke="url(&quot;#SvgjsLinearGradient1118&quot;)" stroke-linecap="round" class="Up"></path><path d="M419 510L418 275" stroke-width="8" stroke="url(&quot;#SvgjsLinearGradient1117&quot;)" stroke-linecap="round" class="Up"></path><path d="M1391 898L1390 1197" stroke-width="10" stroke="url(&quot;#SvgjsLinearGradient1120&quot;)" stroke-linecap="round" class="Down"></path><path d="M1328 802L1327 1033" stroke-width="6" stroke="url(&quot;#SvgjsLinearGradient1120&quot;)" stroke-linecap="round" class="Down"></path><path d="M1591 254L1590 710" stroke-width="6" stroke="url(&quot;#SvgjsLinearGradient1121&quot;)" stroke-linecap="round" class="Up"></path><path d="M990 479L989 1055" stroke-width="6" stroke="url(&quot;#SvgjsLinearGradient1118&quot;)" stroke-linecap="round" class="Up"></path><path d="M1486 820L1485 389" stroke-width="10" stroke="url(&quot;#SvgjsLinearGradient1116&quot;)" stroke-linecap="round" class="Down"></path><path d="M1788 726L1787 189" stroke-width="8" stroke="url(&quot;#SvgjsLinearGradient1120&quot;)" stroke-linecap="round" class="Down"></path><path d="M800 863L799 1522" stroke-width="8" stroke="url(&quot;#SvgjsLinearGradient1118&quot;)" stroke-linecap="round" class="Up"></path><path d="M496 701L495 364" stroke-width="6" stroke="url(&quot;#SvgjsLinearGradient1121&quot;)" stroke-linecap="round" class="Up"></path><path d="M1571 553L1570 250" stroke-width="8" stroke="url(&quot;#SvgjsLinearGradient1116&quot;)" stroke-linecap="round" class="Down"></path></g><defs><mask id="SvgjsMask1115"><rect width="1980" height="920" fill="#ffffff"></rect></mask><linearGradient x1="0%" y1="0%" x2="0%" y2="100%" id="SvgjsLinearGradient1116"><stop stop-color="rgba(102, 11, 11, 0)" offset="0"></stop><stop stop-color="rgba(102, 11, 11, 1)" offset="1"></stop></linearGradient><linearGradient x1="0%" y1="100%" x2="0%" y2="0%" id="SvgjsLinearGradient1117"><stop stop-color="rgba(83, 9, 9, 0)" offset="0"></stop><stop stop-color="rgba(83, 9, 9, 1)" offset="1"></stop></linearGradient><linearGradient x1="0%" y1="100%" x2="0%" y2="0%" id="SvgjsLinearGradient1118"><stop stop-color="rgba(117, 14, 14, 0)" offset="0"></stop><stop stop-color="rgba(117, 14, 14, 1)" offset="1"></stop></linearGradient><linearGradient x1="0%" y1="0%" x2="0%" y2="100%" id="SvgjsLinearGradient1119"><stop stop-color="rgba(117, 14, 14, 0)" offset="0"></stop><stop stop-color="rgba(117, 14, 14, 1)" offset="1"></stop></linearGradient><linearGradient x1="0%" y1="0%" x2="0%" y2="100%" id="SvgjsLinearGradient1120"><stop stop-color="rgba(83, 9, 9, 0)" offset="0"></stop><stop stop-color="rgba(83, 9, 9, 1)" offset="1"></stop></linearGradient><linearGradient x1="0%" y1="100%" x2="0%" y2="0%" id="SvgjsLinearGradient1121"><stop stop-color="rgba(102, 11, 11, 0)" offset="0"></stop><stop stop-color="rgba(102, 11, 11, 1)" offset="1"></stop></linearGradient></defs></svg>