<svg xmlns="http://www.w3.org/2000/svg" version="1.1" xmlns:xlink="http://www.w3.org/1999/xlink" xmlns:svgjs="http://svgjs.dev/svgjs" width="1950" height="900" preserveAspectRatio="none" viewBox="0 0 1950 900"><g mask="url(&quot;#SvgjsMask1035&quot;)" fill="none"><rect width="1950" height="900" x="0" y="0" fill="rgba(20, 18, 18, 1)"></rect><g transform="translate(0, 0)" stroke-linecap="round"><path d="M364 226.42 L364 673.58" stroke-width="35.25" stroke="rgba(83, 9, 9, 1)"></path><path d="M411 302.09 L411 597.91" stroke-width="35.25" stroke="rgba(83, 9, 9, 1)"></path><path d="M458 348.43 L458 551.58" stroke-width="35.25" stroke="rgba(83, 9, 9, 1)"></path><path d="M505 248.3 L505 651.7" stroke-width="35.25" stroke="rgba(83, 9, 9, 1)"></path><path d="M552 191.63 L552 708.37" stroke-width="35.25" stroke="rgba(102, 11, 11, 1)"></path><path d="M599 227.83 L599 672.17" stroke-width="35.25" stroke="rgba(102, 11, 11, 1)"></path><path d="M646 369.38 L646 530.63" stroke-width="35.25" stroke="rgba(83, 9, 9, 1)"></path><path d="M693 335.03 L693 564.97" stroke-width="35.25" stroke="rgba(83, 9, 9, 1)"></path><path d="M740 375.19 L740 524.81" stroke-width="35.25" stroke="rgba(102, 11, 11, 1)"></path><path d="M787 330.52 L787 569.48" stroke-width="35.25" stroke="rgba(83, 9, 9, 1)"></path><path d="M834 216.07 L834 683.93" stroke-width="35.25" stroke="rgba(102, 11, 11, 1)"></path><path d="M881 211.65 L881 688.35" stroke-width="35.25" stroke="rgba(83, 9, 9, 1)"></path><path d="M928 221.59 L928 678.41" stroke-width="35.25" stroke="rgba(83, 9, 9, 1)"></path><path d="M975 179.48 L975 720.52" stroke-width="35.25" stroke="rgba(83, 9, 9, 1)"></path><path d="M1022 330.61 L1022 569.39" stroke-width="35.25" stroke="rgba(83, 9, 9, 1)"></path><path d="M1069 195.79 L1069 704.21" stroke-width="35.25" stroke="rgba(102, 11, 11, 1)"></path><path d="M1116 322.76 L1116 577.24" stroke-width="35.25" stroke="rgba(102, 11, 11, 1)"></path><path d="M1163 239.62 L1163 660.38" stroke-width="35.25" stroke="rgba(83, 9, 9, 1)"></path><path d="M1210 208.97 L1210 691.03" stroke-width="35.25" stroke="rgba(102, 11, 11, 1)"></path><path d="M1257 286.19 L1257 613.81" stroke-width="35.25" stroke="rgba(83, 9, 9, 1)"></path><path d="M1304 317.07 L1304 582.92" stroke-width="35.25" stroke="rgba(102, 11, 11, 1)"></path><path d="M1351 226.29 L1351 673.71" stroke-width="35.25" stroke="rgba(83, 9, 9, 1)"></path><path d="M1398 312.09 L1398 587.91" stroke-width="35.25" stroke="rgba(102, 11, 11, 1)"></path><path d="M1445 186.68 L1445 713.32" stroke-width="35.25" stroke="rgba(102, 11, 11, 1)"></path><path d="M1492 398.52 L1492 501.48" stroke-width="35.25" stroke="rgba(83, 9, 9, 1)"></path><path d="M1539 228.02 L1539 671.98" stroke-width="35.25" stroke="rgba(83, 9, 9, 1)"></path><path d="M1586 245.33 L1586 654.67" stroke-width="35.25" stroke="rgba(83, 9, 9, 1)"></path></g></g><defs><mask id="SvgjsMask1035"><rect width="1950" height="900" fill="#ffffff"></rect></mask></defs></svg>