<svg id="visual" viewBox="0 0 2048 1048" width="2048" height="1048" xmlns="http://www.w3.org/2000/svg" xmlns:xlink="http://www.w3.org/1999/xlink" version="1.1"><rect x="0" y="0" width="2048" height="1048" fill="#141212"></rect><defs><linearGradient id="grad1_0" x1="48.8%" y1="100%" x2="100%" y2="0%"><stop offset="10.916030534351146%" stop-color="#141212" stop-opacity="1"></stop><stop offset="89.08396946564885%" stop-color="#141212" stop-opacity="1"></stop></linearGradient></defs><defs><linearGradient id="grad2_0" x1="0%" y1="100%" x2="51.2%" y2="0%"><stop offset="10.916030534351146%" stop-color="#141212" stop-opacity="1"></stop><stop offset="89.08396946564885%" stop-color="#141212" stop-opacity="1"></stop></linearGradient></defs><g transform="translate(2048, 1048)"><path d="M-943.2 0C-910.1 -112.8 -877 -225.5 -838.9 -347.5C-800.7 -469.4 -757.6 -600.5 -666.9 -666.9C-576.3 -733.4 -438.2 -735.2 -319.2 -770.5C-200.1 -805.8 -100 -874.5 0 -943.2L0 0Z" fill="#821313"></path></g><g transform="translate(0, 0)"><path d="M943.2 0C886.8 110.7 830.5 221.5 777.9 322.2C725.3 422.9 676.6 513.7 611.6 611.6C546.7 709.6 465.6 814.9 360.9 871.4C256.3 927.9 128.2 935.5 0 943.2L0 0Z" fill="#821313"></path></g></svg>